<svg xmlns="http://www.w3.org/2000/svg" xmlns:xlink="http://www.w3.org/1999/xlink" version="1.1" width="256" height="256" viewBox="0 0 256 256" xml:space="preserve">

<defs>
</defs>
<g style="stroke: none; stroke-width: 0; stroke-dasharray: none; stroke-linecap: butt; stroke-linejoin: miter; stroke-miterlimit: 10; fill: none; fill-rule: nonzero; opacity: 1;" transform="translate(1.4065934065934016 1.4065934065934016) scale(2.81 2.81)" >
	<path d="M 63.697 64.683 H 26.302 c -4.1 0 -7.436 -3.336 -7.436 -7.437 V 32.754 c 0 -4.1 3.336 -7.436 7.436 -7.436 h 37.395 c 4.101 0 7.437 3.336 7.437 7.436 v 24.492 C 71.134 61.347 67.798 64.683 63.697 64.683 z M 26.302 29.318 c -1.895 0 -3.436 1.542 -3.436 3.436 v 24.492 c 0 1.895 1.542 3.437 3.436 3.437 h 37.395 c 1.895 0 3.437 -1.542 3.437 -3.437 V 32.754 c 0 -1.895 -1.542 -3.436 -3.437 -3.436 H 26.302 z" style="stroke: none; stroke-width: 1; stroke-dasharray: none; stroke-linecap: butt; stroke-linejoin: miter; stroke-miterlimit: 10; fill: rgb(0,0,0); fill-rule: nonzero; opacity: 1;" transform=" matrix(1 0 0 1 0 0) " stroke-linecap="round" />
	<path d="M 45 52.579 c -2.135 0 -4.185 -0.904 -5.623 -2.482 l -12.35 -13.55 c -0.744 -0.816 -0.686 -2.081 0.131 -2.825 c 0.815 -0.745 2.081 -0.686 2.825 0.131 l 12.35 13.549 c 0.692 0.76 1.64 1.178 2.667 1.178 c 1.028 0 1.976 -0.418 2.667 -1.178 l 12.349 -13.549 c 0.744 -0.816 2.01 -0.875 2.826 -0.131 c 0.816 0.744 0.875 2.009 0.131 2.825 l -12.349 13.55 C 49.186 51.675 47.136 52.579 45 52.579 z" style="stroke: none; stroke-width: 1; stroke-dasharray: none; stroke-linecap: butt; stroke-linejoin: miter; stroke-miterlimit: 10; fill: rgb(0,0,0); fill-rule: nonzero; opacity: 1;" transform=" matrix(1 0 0 1 0 0) " stroke-linecap="round" />
	<path d="M 45 90 C 20.187 90 0 69.813 0 45 C 0 20.187 20.187 0 45 0 c 24.813 0 45 20.187 45 45 C 90 69.813 69.813 90 45 90 z M 45 4 C 22.393 4 4 22.393 4 45 s 18.393 41 41 41 s 41 -18.393 41 -41 S 67.607 4 45 4 z" style="stroke: none; stroke-width: 1; stroke-dasharray: none; stroke-linecap: butt; stroke-linejoin: miter; stroke-miterlimit: 10; fill: rgb(0,0,0); fill-rule: nonzero; opacity: 1;" transform=" matrix(1 0 0 1 0 0) " stroke-linecap="round" />
	<path d="M 28.884 57.921 c -0.512 0 -1.024 -0.195 -1.414 -0.586 c -0.781 -0.781 -0.781 -2.047 0 -2.828 l 9.683 -9.683 c 0.78 -0.781 2.048 -0.781 2.828 0 c 0.781 0.781 0.781 2.047 0 2.828 l -9.683 9.683 C 29.908 57.726 29.396 57.921 28.884 57.921 z" style="stroke: none; stroke-width: 1; stroke-dasharray: none; stroke-linecap: butt; stroke-linejoin: miter; stroke-miterlimit: 10; fill: rgb(0,0,0); fill-rule: nonzero; opacity: 1;" transform=" matrix(1 0 0 1 0 0) " stroke-linecap="round" />
	<path d="M 61.494 57.921 c -0.499 0 -0.999 -0.186 -1.387 -0.559 L 50.047 47.68 c -0.796 -0.767 -0.82 -2.032 -0.055 -2.828 c 0.767 -0.795 2.034 -0.82 2.828 -0.054 l 10.061 9.682 c 0.796 0.767 0.82 2.032 0.055 2.828 C 62.543 57.716 62.019 57.921 61.494 57.921 z" style="stroke: none; stroke-width: 1; stroke-dasharray: none; stroke-linecap: butt; stroke-linejoin: miter; stroke-miterlimit: 10; fill: rgb(0,0,0); fill-rule: nonzero; opacity: 1;" transform=" matrix(1 0 0 1 0 0) " stroke-linecap="round" />
</g>
</svg>